# xmcd
#
# Track frame offsets:
#  150
#  21900
#  36227
#  57379
#  70654
#  85654
#  100055
#  113106
#  127133
#  150986
#  161230
#  176756
#  195433
#  208408
#
# Disc length: 3081 seconds
#
# Revision: 0
# Processed by: cddbd v1.5.1PL2 Copyright (c) Steve Scherf et al.
# Submitted via: Collectorz.com_Music_Collector 6.9
#
DISCID=c00c070e
DTITLE=Leon van der Meer - Leon van der Meer Sings The Hits Of John Denver
DYEAR=2005
DGENRE=Country
TTITLE0=Back Home Again
TTITLE1=Take Me Home, Country Roads
TTITLE2=Rocky Mountain High
TTITLE3=Annie's Song
TTITLE4=Thank God I'am A Country Boy
TTITLE5=Rhymes And Reasons
TTITLE6=Follow Me
TTITLE7=For Baby (For Bobbie)
TTITLE8=Sunshine On My Shoulders
TTITLE9=Grandma's Feather Bed
TTITLE10=Calypso
TTITLE11=Leaving On A Jet Plane
TTITLE12=This Old Guitar
TTITLE13=Sweet Surrender
EXTD=
EXTT0=
EXTT1=
EXTT2=
EXTT3=
EXTT4=
EXTT5=
EXTT6=
EXTT7=
EXTT8=
EXTT9=
EXTT10=
EXTT11=
EXTT12=
EXTT13=
PLAYORDER=
